# xmcd
#
# Track frame offsets: 
#        150
#        75465
#        110115
#        179670
#        256630
#        260787
#        282674
#        313581
#        343018
#
# Disc length: 4621 seconds
#
# Revision: 2
# Processed by: cddbd v1.5.2PL0 Copyright (c) Steve Scherf et al.
# Submitted via: ExactAudioCopy v0.95b4
#
DISCID=87120b09
DTITLE=Miles Davis - Live In Zurich
DYEAR=1960
DGENRE=Jazz
TTITLE0=If I Were A Bell
TTITLE1=Fran-Dance
TTITLE2=So What
TTITLE3=All Blues
TTITLE4=The Theme
TTITLE5=Four
TTITLE6=Bye Bye Blackbird
TTITLE7=Walkin'
TTITLE8=Two Bass Hit
EXTD=YEAR: 1960
EXTT0=
EXTT1=
EXTT2=
EXTT3=
EXTT4=
EXTT5=
EXTT6=
EXTT7=
EXTT8=
PLAYORDER=
